<svg width="104" height="30" viewBox="0 0 104 30" fill="none" xmlns="http://www.w3.org/2000/svg">
<path d="M34.9002 13.4448C35.4891 13.8169 35.9136 14.2883 36.1719 14.8573V13.0095H37.2575V21.6998C37.2575 22.4765 37.0895 23.1629 36.7536 23.7626C36.4176 24.3623 35.9497 24.8247 35.35 25.1517C34.7503 25.4768 34.0675 25.6412 33.3016 25.6412C32.216 25.6412 31.3129 25.3829 30.5939 24.8663C29.875 24.3497 29.427 23.6452 29.2518 22.7565H30.323C30.509 23.3453 30.8631 23.8168 31.3851 24.169C31.9071 24.5213 32.5466 24.6965 33.3016 24.6965C33.849 24.6965 34.3421 24.5809 34.7756 24.3478C35.2109 24.1148 35.5505 23.7716 35.7998 23.3164C36.0473 22.8612 36.1719 22.3229 36.1719 21.7034V19.608C35.9028 20.1879 35.4765 20.6665 34.8912 21.0441C34.306 21.4216 33.6159 21.6112 32.8193 21.6112C32.0444 21.6112 31.3472 21.4306 30.733 21.0675C30.1171 20.7063 29.6366 20.1933 29.2898 19.5321C28.9429 18.871 28.7695 18.1051 28.7695 17.2363C28.7695 16.3674 28.9429 15.6052 29.2898 14.9477C29.6366 14.2902 30.1171 13.7844 30.733 13.4267C31.349 13.0691 32.0444 12.892 32.8193 12.892C33.6159 12.8848 34.3096 13.0709 34.9002 13.4448ZM35.7528 15.4462C35.4729 14.9296 35.0935 14.5304 34.613 14.2522C34.1326 13.9722 33.6015 13.8332 33.0217 13.8332C32.422 13.8332 31.8837 13.9668 31.4086 14.236C30.9317 14.5051 30.5578 14.8953 30.2832 15.4083C30.0087 15.9195 29.8714 16.5282 29.8714 17.2309C29.8714 17.9245 30.0087 18.5314 30.2832 19.0535C30.5578 19.5755 30.9317 19.9747 31.4086 20.2475C31.8837 20.522 32.422 20.6593 33.0217 20.6593C33.6015 20.6593 34.1307 20.5202 34.613 20.2402C35.0935 19.9603 35.4747 19.5629 35.7528 19.0462C36.0328 18.5296 36.1719 17.9299 36.1719 17.2471C36.1719 16.5625 36.0328 15.9628 35.7528 15.4462Z" fill="#006666"/>
<path d="M41.9206 13.2893C42.412 13.0003 43.0153 12.854 43.7288 12.854V13.9866H43.4343C42.6486 13.9866 42.0164 14.1979 41.5413 14.6224C41.0644 15.0469 40.8278 15.755 40.8278 16.7485V21.4811H39.7422V13.0093H40.8278V14.514C41.0662 13.9866 41.4311 13.5783 41.9206 13.2893Z" fill="#006666"/>
<path d="M52.9939 17.6643H45.9654C45.9962 18.3056 46.1515 18.8547 46.4315 19.3099C46.7115 19.7651 47.0781 20.1083 47.5333 20.3413C47.9885 20.5744 48.4853 20.69 49.0236 20.69C49.7262 20.69 50.3187 20.5202 50.801 20.1788C51.2815 19.8374 51.5994 19.3767 51.7548 18.7969H52.9036C52.6959 19.6242 52.2551 20.2998 51.5777 20.8218C50.9004 21.3439 50.0496 21.6058 49.0254 21.6058C48.2288 21.6058 47.5153 21.4269 46.8831 21.0711C46.2527 20.7134 45.7577 20.2077 45.4019 19.5502C45.0442 18.8926 44.8672 18.125 44.8672 17.2453C44.8672 16.3656 45.0424 15.5961 45.3946 14.9332C45.7469 14.272 46.2382 13.7645 46.8686 13.4122C47.499 13.06 48.218 12.8848 49.0254 12.8848C49.8328 12.8848 50.5391 13.06 51.1442 13.4122C51.7493 13.7645 52.2154 14.2377 52.5405 14.832C52.8657 15.4263 53.03 16.0856 53.03 16.8099C53.0246 17.1839 53.0138 17.4674 52.9939 17.6643ZM51.5416 15.1662C51.2779 14.7218 50.9184 14.3858 50.4632 14.1582C50.008 13.9306 49.5113 13.8168 48.973 13.8168C48.1656 13.8168 47.4773 14.0751 46.9102 14.5918C46.3412 15.1084 46.0251 15.8381 45.9636 16.7792H51.9227C51.9336 16.1488 51.8053 15.6105 51.5416 15.1662Z" fill="#006666"/>
<path d="M62.6424 17.6643H55.6139C55.6446 18.3056 55.7999 18.8547 56.0799 19.3099C56.3599 19.7651 56.7266 20.1083 57.1818 20.3413C57.637 20.5744 58.1337 20.69 58.672 20.69C59.3747 20.69 59.9672 20.5202 60.4495 20.1788C60.9299 19.8374 61.2479 19.3767 61.4032 18.7969H62.552C62.3443 19.6242 61.9036 20.2998 61.2262 20.8218C60.5488 21.3439 59.698 21.6058 58.6738 21.6058C57.8772 21.6058 57.1637 21.4269 56.5315 21.0711C55.9011 20.7134 55.4062 20.2077 55.0503 19.5502C54.6927 18.8926 54.5156 18.125 54.5156 17.2453C54.5156 16.3656 54.6908 15.5961 55.0431 14.9332C55.3953 14.272 55.8866 13.7645 56.5171 13.4122C57.1475 13.06 57.8664 12.8848 58.6738 12.8848C59.4813 12.8848 60.1875 13.06 60.7927 13.4122C61.3978 13.7645 61.8638 14.2377 62.189 14.832C62.5141 15.4263 62.6785 16.0856 62.6785 16.8099C62.6731 17.1839 62.6622 17.4674 62.6424 17.6643ZM61.1901 15.1662C60.9263 14.7218 60.5669 14.3858 60.1117 14.1582C59.6565 13.9306 59.1597 13.8168 58.6214 13.8168C57.814 13.8168 57.1258 14.0751 56.5586 14.5918C55.9896 15.1084 55.6735 15.8381 55.6121 16.7792H61.5712C61.582 16.1488 61.4556 15.6105 61.1901 15.1662Z" fill="#006666"/>
<path d="M71.1142 13.7932C71.7555 14.42 72.077 15.3268 72.077 16.5172V21.4828H71.0058V16.6418C71.0058 15.7206 70.7764 15.0179 70.3158 14.532C69.8552 14.0461 69.2266 13.8022 68.43 13.8022C67.6117 13.8022 66.9614 14.0605 66.4755 14.5772C65.9896 15.0938 65.7458 15.8542 65.7458 16.8586V21.4828H64.6602V13.0111H65.7458V14.4543C66.0149 13.9377 66.4033 13.5421 66.9091 13.2676C67.4148 12.993 67.9892 12.8557 68.6323 12.8557C69.6457 12.8539 70.473 13.1664 71.1142 13.7932Z" fill="#006666"/>
<path d="M79.4028 21.4811L76.4855 17.8196V21.4811H74.3125V10H76.4855V16.5317L79.3721 12.8847H82.1954L78.4093 17.1983L82.2261 21.4811H79.4028Z" fill="#006666"/>
<path d="M86.7023 13.1412C87.1936 12.8775 87.7554 12.7456 88.3858 12.7456C89.121 12.7456 89.7857 12.9262 90.38 13.2893C90.9743 13.6524 91.4457 14.1654 91.7925 14.8337C92.1394 15.5003 92.3128 16.2752 92.3128 17.1531C92.3128 18.0328 92.1394 18.8113 91.7925 19.4887C91.4457 20.166 90.9743 20.6917 90.38 21.0638C89.7857 21.4359 89.121 21.622 88.3858 21.622C87.7554 21.622 87.199 21.4919 86.7185 21.2336C86.2381 20.9753 85.8479 20.6501 85.548 20.2564V25.5778H83.375V12.8847H85.548V14.1256C85.8244 13.7337 86.211 13.4049 86.7023 13.1412ZM89.7749 15.811C89.5635 15.4334 89.2835 15.1462 88.9367 14.9493C88.5899 14.7524 88.216 14.6549 87.8114 14.6549C87.4176 14.6549 87.0491 14.7561 86.7023 14.9566C86.3555 15.1589 86.0755 15.4515 85.8641 15.8326C85.651 16.2156 85.5462 16.6654 85.5462 17.182C85.5462 17.6986 85.6528 18.1502 85.8641 18.5313C86.0755 18.9143 86.3555 19.2069 86.7023 19.4074C87.0491 19.6097 87.4176 19.7108 87.8114 19.7108C88.2142 19.7108 88.5899 19.6079 88.9367 19.4002C89.2835 19.1924 89.5617 18.898 89.7749 18.5151C89.9862 18.1321 90.0928 17.6769 90.0928 17.1495C90.0928 16.6347 89.9862 16.1885 89.7749 15.811Z" fill="#006666"/>
<path d="M95.4758 21.071C94.8129 20.7043 94.2945 20.1841 93.9169 19.5122C93.5394 18.8402 93.3516 18.0635 93.3516 17.1838C93.3516 16.3041 93.5448 15.5292 93.9332 14.8554C94.3216 14.1835 94.8508 13.6632 95.5228 13.2965C96.1947 12.9299 96.9444 12.7456 97.7735 12.7456C98.6008 12.7456 99.3504 12.9299 100.024 13.2965C100.696 13.6632 101.227 14.1835 101.614 14.8554C102.002 15.5274 102.195 16.3041 102.195 17.1838C102.195 18.0635 101.997 18.8384 101.598 19.5122C101.198 20.1841 100.662 20.7043 99.9844 21.071C99.3071 21.4377 98.5484 21.622 97.7121 21.622C96.8812 21.622 96.1369 21.4377 95.4758 21.071ZM98.8194 19.4417C99.1662 19.2502 99.4425 18.963 99.6503 18.5801C99.858 18.1971 99.961 17.7311 99.961 17.1838C99.961 16.3673 99.746 15.7387 99.3161 15.298C98.8862 14.859 98.3623 14.6386 97.741 14.6386C97.1196 14.6386 96.6012 14.859 96.1821 15.298C95.763 15.7369 95.5535 16.3655 95.5535 17.1838C95.5535 18.0021 95.7576 18.6289 96.1658 19.0696C96.5741 19.5085 97.0889 19.7289 97.7103 19.7289C98.1022 19.7289 98.4725 19.6332 98.8194 19.4417Z" fill="#006666"/>
<path d="M9.51486 23.0666C6.66445 21.6884 4.69012 18.7748 4.69012 15.4041C4.69012 10.7076 8.51053 6.88724 13.207 6.88724C16.0357 6.88724 18.5393 8.27993 20.0892 10.4078C21.3699 9.95079 22.7282 9.65275 24.139 9.5552C22.0472 5.65712 17.9324 3 13.207 3C6.36822 3 0.804688 8.56352 0.804688 15.4023C0.804688 22.1129 6.16229 27.5915 12.8241 27.7956C11.267 26.5565 10.129 24.9235 9.51486 23.0666Z" fill="#006666"/>
<path d="M12.6067 27.2591C12.8 27.4524 13.0005 27.633 13.2046 27.8046C13.4105 27.633 13.611 27.4524 13.8043 27.2591C17.4477 23.6193 17.4495 17.6945 13.8097 14.0511C13.6164 13.8579 13.4159 13.6772 13.2118 13.5056C13.0059 13.6772 12.8054 13.8579 12.6121 14.0511C8.97054 17.6909 8.96693 23.6157 12.6067 27.2591Z" fill="#3EF3B7"/>
<path d="M12.8047 24.779C12.8047 25.8231 12.9365 26.8365 13.1804 27.8047C13.1894 27.8047 13.1985 27.8047 13.2057 27.8047C20.0445 27.8047 25.608 22.2411 25.608 15.4023C25.608 14.3583 25.4762 13.3449 25.2323 12.3767C25.2233 12.3767 25.2142 12.3767 25.207 12.3767C18.3682 12.3767 12.8047 17.9402 12.8047 24.779Z" fill="#3EF3B7"/>
<path d="M12.8047 24.7791C12.8047 25.8142 12.9347 26.8185 13.1732 27.7795C13.1822 27.7885 13.1912 27.7975 13.2021 27.8048C13.408 27.6332 13.6085 27.4525 13.8018 27.2592C16.6233 24.4414 17.2501 20.2561 15.7057 16.8186C13.8975 18.9754 12.8047 21.7517 12.8047 24.7791Z" fill="#006666"/>
</svg>
