<svg width="104" height="30" viewBox="0 0 104 30" fill="none" xmlns="http://www.w3.org/2000/svg">
<path d="M10.5168 22.6643C7.66641 21.286 5.69208 18.3724 5.69208 15.0018C5.69208 10.3053 9.51249 6.4849 14.209 6.4849C17.0377 6.4849 19.5413 7.87758 21.0911 10.0055C22.3718 9.54845 23.7302 9.2504 25.1409 9.15286C23.0492 5.25478 18.9344 2.59766 14.209 2.59766C7.37017 2.59766 1.80664 8.16118 1.80664 15C1.80664 21.7105 7.16424 27.1892 13.826 27.3933C12.269 26.1541 11.131 24.5212 10.5168 22.6643Z" fill="#006666"/>
<path d="M13.6077 26.857C13.801 27.0503 14.0015 27.2309 14.2056 27.4025C14.4115 27.2309 14.612 27.0503 14.8053 26.857C18.4487 23.2172 18.4505 17.2924 14.8107 13.649C14.6174 13.4558 14.4169 13.2751 14.2128 13.1035C14.0069 13.2751 13.8064 13.4558 13.6131 13.649C9.97152 17.2888 9.96791 23.2136 13.6077 26.857Z" fill="#33CC99"/>
<path d="M34.8993 13.3527C35.4881 13.7249 35.9126 14.1963 36.1709 14.7653V12.9174H37.2565V21.6077C37.2565 22.3844 37.0886 23.0709 36.7526 23.6706C36.4166 24.2703 35.9488 24.7327 35.3491 25.0596C34.7493 25.3848 34.0666 25.5491 33.3007 25.5491C32.2151 25.5491 31.3119 25.2908 30.593 24.7742C29.874 24.2576 29.4261 23.5531 29.2508 22.6644H30.322C30.5081 23.2533 30.8621 23.7247 31.3841 24.077C31.9062 24.4292 32.5456 24.6044 33.3007 24.6044C33.848 24.6044 34.3411 24.4888 34.7746 24.2558C35.21 24.0228 35.5496 23.6796 35.7988 23.2244C36.0463 22.7692 36.1709 22.2309 36.1709 21.6113V19.516C35.9018 20.0958 35.4755 20.5745 34.8902 20.952C34.305 21.3295 33.615 21.5192 32.8184 21.5192C32.0434 21.5192 31.3462 21.3386 30.732 20.9755C30.1161 20.6142 29.6356 20.1012 29.2888 19.4401C28.942 18.779 28.7686 18.0131 28.7686 17.1443C28.7686 16.2754 28.942 15.5131 29.2888 14.8556C29.6356 14.1981 30.1161 13.6923 30.732 13.3347C31.348 12.977 32.0434 12.8 32.8184 12.8C33.615 12.7928 34.3086 12.9788 34.8993 13.3527ZM35.7519 15.3542C35.4719 14.8376 35.0926 14.4384 34.6121 14.1602C34.1316 13.8802 33.6005 13.7411 33.0207 13.7411C32.421 13.7411 31.8827 13.8748 31.4076 14.1439C30.9307 14.4131 30.5568 14.8032 30.2823 15.3162C30.0077 15.8274 29.8704 16.4362 29.8704 17.1388C29.8704 17.8325 30.0077 18.4394 30.2823 18.9614C30.5568 19.4835 30.9307 19.8827 31.4076 20.1554C31.8827 20.43 32.421 20.5673 33.0207 20.5673C33.6005 20.5673 34.1298 20.4282 34.6121 20.1482C35.0926 19.8682 35.4737 19.4708 35.7519 18.9542C36.0318 18.4376 36.1709 17.8379 36.1709 17.1551C36.1709 16.4705 36.0318 15.8708 35.7519 15.3542Z" fill="#006666"/>
<path d="M41.9187 13.1975C42.41 12.9085 43.0133 12.7622 43.7268 12.7622V13.8948H43.4324C42.6466 13.8948 42.0144 14.1061 41.5393 14.5306C41.0625 14.9551 40.8258 15.6632 40.8258 16.6567V21.3893H39.7402V12.9176H40.8258V14.4222C41.0643 13.8948 41.4292 13.4865 41.9187 13.1975Z" fill="#006666"/>
<path d="M52.992 17.5725H45.9635C45.9942 18.2138 46.1495 18.7629 46.4295 19.2181C46.7095 19.6733 47.0762 20.0165 47.5314 20.2495C47.9866 20.4826 48.4833 20.5982 49.0216 20.5982C49.7243 20.5982 50.3168 20.4284 50.7991 20.087C51.2795 19.7456 51.5975 19.285 51.7528 18.7051H52.9016C52.6939 19.5324 52.2532 20.208 51.5758 20.73C50.8984 21.2521 50.0476 21.514 49.0234 21.514C48.2268 21.514 47.5133 21.3351 46.8811 20.9793C46.2507 20.6216 45.7558 20.1159 45.3999 19.4584C45.0423 18.8009 44.8652 18.0332 44.8652 17.1535C44.8652 16.2738 45.0404 15.5043 45.3927 14.8414C45.7449 14.1802 46.2362 13.6727 46.8667 13.3204C47.4971 12.9682 48.216 12.793 49.0234 12.793C49.8309 12.793 50.5371 12.9682 51.1423 13.3204C51.7474 13.6727 52.2134 14.1459 52.5386 14.7402C52.8637 15.3345 53.0281 15.9938 53.0281 16.7181C53.0227 17.0921 53.0118 17.3757 52.992 17.5725ZM51.5397 15.0744C51.2759 14.63 50.9165 14.294 50.4613 14.0664C50.0061 13.8388 49.5093 13.725 48.971 13.725C48.1636 13.725 47.4754 13.9833 46.9082 14.5C46.3392 15.0166 46.0231 15.7463 45.9617 16.6874H51.9208C51.9316 16.057 51.8034 15.5187 51.5397 15.0744Z" fill="#006666"/>
<path d="M62.6433 17.5725H55.6149C55.6456 18.2138 55.8009 18.7629 56.0809 19.2181C56.3609 19.6733 56.7276 20.0165 57.1828 20.2495C57.638 20.4826 58.1347 20.5982 58.673 20.5982C59.3757 20.5982 59.9681 20.4284 60.4504 20.087C60.9309 19.7456 61.2488 19.285 61.4042 18.7051H62.553C62.3453 19.5324 61.9045 20.208 61.2272 20.73C60.5498 21.2521 59.699 21.514 58.6748 21.514C57.8782 21.514 57.1647 21.3351 56.5325 20.9793C55.9021 20.6216 55.4071 20.1159 55.0513 19.4584C54.6936 18.8009 54.5166 18.0332 54.5166 17.1535C54.5166 16.2738 54.6918 15.5043 55.0441 14.8414C55.3963 14.1802 55.8876 13.6727 56.518 13.3204C57.1484 12.9682 57.8674 12.793 58.6748 12.793C59.4822 12.793 60.1885 12.9682 60.7936 13.3204C61.3988 13.6727 61.8648 14.1459 62.1899 14.7402C62.5151 15.3345 62.6795 15.9938 62.6795 16.7181C62.674 17.0921 62.6632 17.3757 62.6433 17.5725ZM61.191 15.0744C60.9273 14.63 60.5678 14.294 60.1126 14.0664C59.6574 13.8388 59.1607 13.725 58.6224 13.725C57.815 13.725 57.1268 13.9833 56.5596 14.5C55.9906 15.0166 55.6745 15.7463 55.6131 16.6874H61.5722C61.583 16.057 61.4566 15.5187 61.191 15.0744Z" fill="#006666"/>
<path d="M71.1142 13.7012C71.7555 14.328 72.077 15.2348 72.077 16.4251V21.3908H71.0058V16.5498C71.0058 15.6285 70.7764 14.9259 70.3158 14.44C69.8552 13.9541 69.2266 13.7102 68.43 13.7102C67.6117 13.7102 66.9614 13.9685 66.4755 14.4851C65.9896 15.0017 65.7458 15.7622 65.7458 16.7665V21.3908H64.6602V12.919H65.7458V14.3623C66.0149 13.8457 66.4033 13.4501 66.9091 13.1755C67.4148 12.901 67.9892 12.7637 68.6323 12.7637C69.6457 12.7619 70.473 13.0744 71.1142 13.7012Z" fill="#006666"/>
<path d="M79.3998 21.3893L76.4826 17.7278V21.3893H74.3096V9.9082H76.4826V16.4399L79.3691 12.7929H82.1924L78.4063 17.1065L82.2231 21.3893H79.3998Z" fill="#33CC99"/>
<path d="M86.7013 13.0494C87.1926 12.7857 87.7544 12.6538 88.3848 12.6538C89.12 12.6538 89.7847 12.8344 90.379 13.1975C90.9733 13.5606 91.4448 14.0736 91.7916 14.7419C92.1384 15.4085 92.3118 16.1834 92.3118 17.0613C92.3118 17.941 92.1384 18.7195 91.7916 19.3969C91.4448 20.0742 90.9733 20.5999 90.379 20.972C89.7847 21.3441 89.12 21.5302 88.3848 21.5302C87.7544 21.5302 87.198 21.4001 86.7176 21.1418C86.2371 20.8835 85.8469 20.5583 85.547 20.1646V25.486H83.374V12.7929H85.547V14.0339C85.8234 13.6419 86.21 13.3131 86.7013 13.0494ZM89.7739 15.7192C89.5625 15.3416 89.2826 15.0544 88.9357 14.8575C88.5889 14.6607 88.215 14.5631 87.8104 14.5631C87.4166 14.5631 87.0481 14.6643 86.7013 14.8648C86.3545 15.0671 86.0745 15.3597 85.8632 15.7408C85.65 16.1238 85.5452 16.5736 85.5452 17.0902C85.5452 17.6068 85.6518 18.0584 85.8632 18.4395C86.0745 18.8225 86.3545 19.1151 86.7013 19.3156C87.0481 19.5179 87.4166 19.6191 87.8104 19.6191C88.2132 19.6191 88.5889 19.5161 88.9357 19.3084C89.2826 19.1006 89.5607 18.8062 89.7739 18.4233C89.9852 18.0403 90.0918 17.5851 90.0918 17.0577C90.0918 16.5429 89.9852 16.0967 89.7739 15.7192Z" fill="#33CC99"/>
<path d="M95.4768 20.9792C94.8139 20.6125 94.2954 20.0923 93.9179 19.4204C93.5404 18.7484 93.3525 17.9717 93.3525 17.092C93.3525 16.2123 93.5458 15.4374 93.9342 14.7636C94.3225 14.0917 94.8518 13.5714 95.5238 13.2047C96.1957 12.8381 96.9454 12.6538 97.7745 12.6538C98.6018 12.6538 99.3514 12.8381 100.025 13.2047C100.697 13.5714 101.228 14.0917 101.615 14.7636C102.003 15.4356 102.196 16.2123 102.196 17.092C102.196 17.9717 101.998 18.7466 101.598 19.4204C101.199 20.0923 100.663 20.6125 99.9854 20.9792C99.308 21.3459 98.5494 21.5302 97.713 21.5302C96.8821 21.5302 96.1379 21.3459 95.4768 20.9792ZM98.8203 19.3499C99.1671 19.1584 99.4435 18.8712 99.6512 18.4883C99.859 18.1053 99.9619 17.6393 99.9619 17.092C99.9619 16.2755 99.747 15.6469 99.3171 15.2062C98.8872 14.7672 98.3633 14.5469 97.7419 14.5469C97.1206 14.5469 96.6021 14.7672 96.1831 15.2062C95.764 15.6451 95.5545 16.2737 95.5545 17.092C95.5545 17.9103 95.7586 18.5371 96.1668 18.9778C96.5751 19.4167 97.0899 19.6371 97.7112 19.6371C98.1032 19.6371 98.4735 19.5414 98.8203 19.3499Z" fill="#33CC99"/>
<path d="M13.8076 24.3769C13.8076 25.421 13.9395 26.4344 14.1833 27.4026C14.1924 27.4026 14.2014 27.4026 14.2086 27.4026C21.0474 27.4026 26.611 21.839 26.611 15.0002C26.611 13.9562 26.4791 12.9428 26.2352 11.9746C26.2262 11.9746 26.2172 11.9746 26.2099 11.9746C19.3711 11.9746 13.8076 17.5381 13.8076 24.3769Z" fill="#33CC99"/>
<path d="M13.8076 24.3766C13.8076 25.4116 13.9377 26.4159 14.1761 27.3769C14.1851 27.3859 14.1942 27.3949 14.205 27.4022C14.4109 27.2306 14.6114 27.0499 14.8047 26.8567C17.6262 24.0388 18.253 19.8535 16.7086 16.416C14.9005 18.5728 13.8076 21.3491 13.8076 24.3766Z" fill="#006666"/>
</svg>
