<svg xmlns="http://www.w3.org/2000/svg" viewBox="0 0 100 100" preserveAspectRatio="xMidYMid" width="200" height="200" style="shape-rendering: auto; display: block; background: rgba(255, 255, 255, 0);" xmlns:xlink="http://www.w3.org/1999/xlink"><g><g transform="rotate(0 50 50)">
  <rect fill="#00d9f1" height="14" width="6" ry="7" rx="3" y="23" x="47">
    <animate repeatCount="indefinite" begin="-0.5022321428571428s" dur="0.5208333333333333s" keyTimes="0;1" values="1;0" attributeName="opacity"></animate>
  </rect>
</g><g transform="rotate(12.857142857142858 50 50)">
  <rect fill="#00d9f1" height="14" width="6" ry="7" rx="3" y="23" x="47">
    <animate repeatCount="indefinite" begin="-0.48363095238095233s" dur="0.5208333333333333s" keyTimes="0;1" values="1;0" attributeName="opacity"></animate>
  </rect>
</g><g transform="rotate(25.714285714285715 50 50)">
  <rect fill="#00d9f1" height="14" width="6" ry="7" rx="3" y="23" x="47">
    <animate repeatCount="indefinite" begin="-0.46502976190476186s" dur="0.5208333333333333s" keyTimes="0;1" values="1;0" attributeName="opacity"></animate>
  </rect>
</g><g transform="rotate(38.57142857142857 50 50)">
  <rect fill="#00d9f1" height="14" width="6" ry="7" rx="3" y="23" x="47">
    <animate repeatCount="indefinite" begin="-0.4464285714285714s" dur="0.5208333333333333s" keyTimes="0;1" values="1;0" attributeName="opacity"></animate>
  </rect>
</g><g transform="rotate(51.42857142857143 50 50)">
  <rect fill="#00d9f1" height="14" width="6" ry="7" rx="3" y="23" x="47">
    <animate repeatCount="indefinite" begin="-0.42782738095238093s" dur="0.5208333333333333s" keyTimes="0;1" values="1;0" attributeName="opacity"></animate>
  </rect>
</g><g transform="rotate(64.28571428571429 50 50)">
  <rect fill="#00d9f1" height="14" width="6" ry="7" rx="3" y="23" x="47">
    <animate repeatCount="indefinite" begin="-0.4092261904761904s" dur="0.5208333333333333s" keyTimes="0;1" values="1;0" attributeName="opacity"></animate>
  </rect>
</g><g transform="rotate(77.14285714285714 50 50)">
  <rect fill="#00d9f1" height="14" width="6" ry="7" rx="3" y="23" x="47">
    <animate repeatCount="indefinite" begin="-0.39062499999999994s" dur="0.5208333333333333s" keyTimes="0;1" values="1;0" attributeName="opacity"></animate>
  </rect>
</g><g transform="rotate(90 50 50)">
  <rect fill="#00d9f1" height="14" width="6" ry="7" rx="3" y="23" x="47">
    <animate repeatCount="indefinite" begin="-0.3720238095238095s" dur="0.5208333333333333s" keyTimes="0;1" values="1;0" attributeName="opacity"></animate>
  </rect>
</g><g transform="rotate(102.85714285714286 50 50)">
  <rect fill="#00d9f1" height="14" width="6" ry="7" rx="3" y="23" x="47">
    <animate repeatCount="indefinite" begin="-0.353422619047619s" dur="0.5208333333333333s" keyTimes="0;1" values="1;0" attributeName="opacity"></animate>
  </rect>
</g><g transform="rotate(115.71428571428571 50 50)">
  <rect fill="#00d9f1" height="14" width="6" ry="7" rx="3" y="23" x="47">
    <animate repeatCount="indefinite" begin="-0.33482142857142855s" dur="0.5208333333333333s" keyTimes="0;1" values="1;0" attributeName="opacity"></animate>
  </rect>
</g><g transform="rotate(128.57142857142858 50 50)">
  <rect fill="#00d9f1" height="14" width="6" ry="7" rx="3" y="23" x="47">
    <animate repeatCount="indefinite" begin="-0.3162202380952381s" dur="0.5208333333333333s" keyTimes="0;1" values="1;0" attributeName="opacity"></animate>
  </rect>
</g><g transform="rotate(141.42857142857142 50 50)">
  <rect fill="#00d9f1" height="14" width="6" ry="7" rx="3" y="23" x="47">
    <animate repeatCount="indefinite" begin="-0.2976190476190476s" dur="0.5208333333333333s" keyTimes="0;1" values="1;0" attributeName="opacity"></animate>
  </rect>
</g><g transform="rotate(154.28571428571428 50 50)">
  <rect fill="#00d9f1" height="14" width="6" ry="7" rx="3" y="23" x="47">
    <animate repeatCount="indefinite" begin="-0.2790178571428571s" dur="0.5208333333333333s" keyTimes="0;1" values="1;0" attributeName="opacity"></animate>
  </rect>
</g><g transform="rotate(167.14285714285714 50 50)">
  <rect fill="#00d9f1" height="14" width="6" ry="7" rx="3" y="23" x="47">
    <animate repeatCount="indefinite" begin="-0.26041666666666663s" dur="0.5208333333333333s" keyTimes="0;1" values="1;0" attributeName="opacity"></animate>
  </rect>
</g><g transform="rotate(180 50 50)">
  <rect fill="#00d9f1" height="14" width="6" ry="7" rx="3" y="23" x="47">
    <animate repeatCount="indefinite" begin="-0.24181547619047616s" dur="0.5208333333333333s" keyTimes="0;1" values="1;0" attributeName="opacity"></animate>
  </rect>
</g><g transform="rotate(192.85714285714286 50 50)">
  <rect fill="#00d9f1" height="14" width="6" ry="7" rx="3" y="23" x="47">
    <animate repeatCount="indefinite" begin="-0.2232142857142857s" dur="0.5208333333333333s" keyTimes="0;1" values="1;0" attributeName="opacity"></animate>
  </rect>
</g><g transform="rotate(205.71428571428572 50 50)">
  <rect fill="#00d9f1" height="14" width="6" ry="7" rx="3" y="23" x="47">
    <animate repeatCount="indefinite" begin="-0.2046130952380952s" dur="0.5208333333333333s" keyTimes="0;1" values="1;0" attributeName="opacity"></animate>
  </rect>
</g><g transform="rotate(218.57142857142858 50 50)">
  <rect fill="#00d9f1" height="14" width="6" ry="7" rx="3" y="23" x="47">
    <animate repeatCount="indefinite" begin="-0.18601190476190474s" dur="0.5208333333333333s" keyTimes="0;1" values="1;0" attributeName="opacity"></animate>
  </rect>
</g><g transform="rotate(231.42857142857142 50 50)">
  <rect fill="#00d9f1" height="14" width="6" ry="7" rx="3" y="23" x="47">
    <animate repeatCount="indefinite" begin="-0.16741071428571427s" dur="0.5208333333333333s" keyTimes="0;1" values="1;0" attributeName="opacity"></animate>
  </rect>
</g><g transform="rotate(244.28571428571428 50 50)">
  <rect fill="#00d9f1" height="14" width="6" ry="7" rx="3" y="23" x="47">
    <animate repeatCount="indefinite" begin="-0.1488095238095238s" dur="0.5208333333333333s" keyTimes="0;1" values="1;0" attributeName="opacity"></animate>
  </rect>
</g><g transform="rotate(257.14285714285717 50 50)">
  <rect fill="#00d9f1" height="14" width="6" ry="7" rx="3" y="23" x="47">
    <animate repeatCount="indefinite" begin="-0.13020833333333331s" dur="0.5208333333333333s" keyTimes="0;1" values="1;0" attributeName="opacity"></animate>
  </rect>
</g><g transform="rotate(270 50 50)">
  <rect fill="#00d9f1" height="14" width="6" ry="7" rx="3" y="23" x="47">
    <animate repeatCount="indefinite" begin="-0.11160714285714285s" dur="0.5208333333333333s" keyTimes="0;1" values="1;0" attributeName="opacity"></animate>
  </rect>
</g><g transform="rotate(282.85714285714283 50 50)">
  <rect fill="#00d9f1" height="14" width="6" ry="7" rx="3" y="23" x="47">
    <animate repeatCount="indefinite" begin="-0.09300595238095237s" dur="0.5208333333333333s" keyTimes="0;1" values="1;0" attributeName="opacity"></animate>
  </rect>
</g><g transform="rotate(295.7142857142857 50 50)">
  <rect fill="#00d9f1" height="14" width="6" ry="7" rx="3" y="23" x="47">
    <animate repeatCount="indefinite" begin="-0.0744047619047619s" dur="0.5208333333333333s" keyTimes="0;1" values="1;0" attributeName="opacity"></animate>
  </rect>
</g><g transform="rotate(308.57142857142856 50 50)">
  <rect fill="#00d9f1" height="14" width="6" ry="7" rx="3" y="23" x="47">
    <animate repeatCount="indefinite" begin="-0.055803571428571425s" dur="0.5208333333333333s" keyTimes="0;1" values="1;0" attributeName="opacity"></animate>
  </rect>
</g><g transform="rotate(321.42857142857144 50 50)">
  <rect fill="#00d9f1" height="14" width="6" ry="7" rx="3" y="23" x="47">
    <animate repeatCount="indefinite" begin="-0.03720238095238095s" dur="0.5208333333333333s" keyTimes="0;1" values="1;0" attributeName="opacity"></animate>
  </rect>
</g><g transform="rotate(334.2857142857143 50 50)">
  <rect fill="#00d9f1" height="14" width="6" ry="7" rx="3" y="23" x="47">
    <animate repeatCount="indefinite" begin="-0.018601190476190476s" dur="0.5208333333333333s" keyTimes="0;1" values="1;0" attributeName="opacity"></animate>
  </rect>
</g><g transform="rotate(347.14285714285717 50 50)">
  <rect fill="#00d9f1" height="14" width="6" ry="7" rx="3" y="23" x="47">
    <animate repeatCount="indefinite" begin="0s" dur="0.5208333333333333s" keyTimes="0;1" values="1;0" attributeName="opacity"></animate>
  </rect>
</g><g></g></g><!-- [ldio] generated by https://loading.io --></svg>