<svg xmlns="http://www.w3.org/2000/svg" width="44" height="44" viewBox="0 0 44 44" fill="none">
  <path d="M15.4553 35.5954C10.4027 33.1506 6.90296 27.9822 6.90296 22.0032C6.90296 13.6723 13.675 6.89543 22 6.89543C27.0142 6.89543 31.4521 9.36586 34.1993 13.1404C36.4695 12.3297 38.8774 11.801 41.3781 11.628C37.6702 4.71337 30.3763 0 22 0C9.87755 0 0.015625 9.86892 0.015625 22C0.015625 33.9036 9.51253 43.6219 21.3212 43.984C18.5612 41.7859 16.5439 38.8893 15.4553 35.5954Z" fill="#006666"/>
  <path d="M20.933 43.0322C21.2756 43.3751 21.631 43.6955 21.9928 43.9999C22.3578 43.6955 22.7132 43.3751 23.0558 43.0322C29.5141 36.5758 29.5173 26.066 23.0654 19.6032C22.7228 19.2603 22.3674 18.9399 22.0056 18.6355C21.6406 18.9399 21.2852 19.2603 20.9426 19.6032C14.4875 26.0596 14.4811 36.5694 20.933 43.0322Z" fill="#33CC99"/>
  <path d="M21.2891 38.6331C21.2891 40.4851 21.5228 42.2826 21.9551 44.0001C21.9711 44.0001 21.9871 44.0001 21.9999 44.0001C34.1224 44.0001 43.9843 34.1312 43.9843 22.0001C43.9843 20.1481 43.7506 18.3505 43.3183 16.6331C43.3023 16.6331 43.2863 16.6331 43.2735 16.6331C31.151 16.6331 21.2891 26.502 21.2891 38.6331Z" fill="#33CC99"/>
  <path d="M21.2891 38.6326C21.2891 40.4686 21.5196 42.2501 21.9423 43.9548C21.9583 43.9708 21.9743 43.9868 21.9935 43.9996C22.3585 43.6952 22.7139 43.3748 23.0565 43.032C28.0579 38.0334 29.169 30.6093 26.4313 24.5117C23.2262 28.3375 21.2891 33.2624 21.2891 38.6326Z" fill="#006666"/>
</svg>